# xmcd
#
# Track frame offsets: 
#        150
#        12587
#        31422
#        44220
#        59082
#        70612
#        87855
#        103642
#        117030
#        130312
#        146295
#        157417
#        178527
#        189290
#        206300
#
# Disc length: 3046 seconds
#
# Revision: 0
# Processed by: cddbd v1.5.2PL0 Copyright (c) Steve Scherf et al.
# Submitted via: ExactAudioCopy v0.99pb5
#
DISCID=d50be40f
DTITLE=Eamon McCann - Everything That I Am
DYEAR=1994
DGENRE=Country
TTITLE0=01 Don't Call Me (I'll Call You)
TTITLE1=02 past the point of rescue
TTITLE2=03 can't break it to my heart
TTITLE3=04 A Bunch Of Bright Red Roses
TTITLE4=05 Everything That I Am
TTITLE5=06 When You Come To Land
TTITLE6=07 I'm No Stranger To The Rain
TTITLE7=08 Small Town Saturday Night
TTITLE8=09 Life After You
TTITLE9=10 love is blind
TTITLE10=11 Hey Good Looking
TTITLE11=12 The Gift Of Love
TTITLE12=13 Only When I Laugh
TTITLE13=14 it's all over now
TTITLE14=15 I Promised You The World
EXTD=
EXTT0=
EXTT1=
EXTT2=
EXTT3=
EXTT4=
EXTT5=
EXTT6=
EXTT7=
EXTT8=
EXTT9=
EXTT10=
EXTT11=
EXTT12=
EXTT13=
EXTT14=
PLAYORDER=
